<svg
   xmlns:dc="http://purl.org/dc/elements/1.1/"
   xmlns:cc="http://creativecommons.org/ns#"
   xmlns:rdf="http://www.w3.org/1999/02/22-rdf-syntax-ns#"
   xmlns:svg="http://www.w3.org/2000/svg"
   xmlns="http://www.w3.org/2000/svg"
   xmlns:sodipodi="http://sodipodi.sourceforge.net/DTD/sodipodi-0.dtd"
   xmlns:inkscape="http://www.inkscape.org/namespaces/inkscape"
   width="80"
   height="35"
   id="svg2"
   version="1.1"
   inkscape:version="0.48.5 r10040"
   sodipodi:docname="xda-logo_newcolors.svg">
    <g transform="translate(-200,-240)">
        <g transform="translate(-175,-127)">
            <path
            d="m 422.65625,368.1875 a 0.508367,0.508367 0 0 0 -0.34375,0.5 v 6.313 h -9.531 c -2.063,0 -3.742,0.548 -4.969,1.688 -1.234,1.146 -1.844,2.805 -1.844,4.875 v 8.938 0.063 c -0.025,0.234 -0.063,0.482 -0.063,0.75 0,1.27 0.37,2.458 1.094,3.5 0.73,1.051 1.737,1.772 2.938,2.094 0.669,0.183 1.597,0.25 2.875,0.25 h 4.688 c 2.264,0 4.03,-0.521 5.25,-1.625 1.219,-1.104 1.812,-2.745 1.813,-4.813 v -22.03 a 0.508367,0.508367 0 0 0 -0.5,-0.5 h -1.25 a 0.508367,0.508367 0 0 0 -0.15625,0 M 384.8125,375 a 0.508367,0.508367 0 0 0 -0.25,0.8125 l 8.03,10.313 -8.156,10.219 a 0.508367,0.508367 0 0 0 0.40625,0.8125 h 1.688 a 0.508367,0.508367 0 0 0 0.40625,-0.1875 l 7.094,-9 7.06,9 a 0.508367,0.508367 0 0 0 0.40625,0.1875 h 1.656 a 0.508367,0.508367 0 0 0 0.40625,-0.8125 l -8.06,-10.25 7.906,-10.281 A 0.508367,0.508367 0 0 0 403,375 h -1.688 a 0.508367,0.508367 0 0 0 -0.40625,0.1875 l -6.875,9.03 -6.969,-9.03 A 0.508367,0.508367 0 0 0 386.65625,375 h -1.688 a 0.508367,0.508367 0 0 0 -0.15625,0 m 44.75,0 a 0.508367,0.508367 0 0 0 -0.34375,0.5 v 1.281 a 0.508367,0.508367 0 0 0 0.5,0.5 h 11.594 c 1.426,0 2.405,0.329 3.03,0.938 0.626,0.608 0.969,1.556 0.969,2.938 v 0.875 h -10.125 c -1.806,0 -3.318,0.553 -4.406,1.656 -1.086,1.101 -1.625,2.597 -1.625,4.406 v 3.156 c 0,1.499 0.451,2.82 1.344,3.844 0.009,0.011 0.022,0.02 0.031,0.031 1.137,1.349 2.794,2.031 4.781,2.031 h 6.344 c 1.86,0 3.378,-0.555 4.406,-1.688 1.019,-1.122 1.5,-2.658 1.5,-4.531 v -9.531 c 0,-2.065 -0.557,-3.715 -1.75,-4.813 -1.193,-1.098 -2.945,-1.594 -5.156,-1.594 h -10.938 a 0.508367,0.508367 0 0 0 -0.15625,0 m -16.812,2.313 h 9.563 v 13.344 c 0,1.304 -0.375,2.226 -1.063,2.906 -0.677,0.67 -1.728,1.141 -3.219,1.313 -0.023,0.003 -0.04,-0.002 -0.063,0 h -0.344 a 0.508367,0.508367 0 0 0 -0.0625,0 c -0.157,0.023 -0.282,0.031 -0.375,0.031 h -4.406 c -1.798,0 -2.981,-0.398 -3.594,-1 -0.614,-0.603 -1,-1.736 -1,-3.531 v -8.719 c 0,-1.71 0.615,-2.902 1.875,-3.75 v 0.031 c 0.573,-0.375 1.469,-0.625 2.688,-0.625 m 22.344,6.969 h 10.188 v 6.969 c 0,1.305 -0.318,2.179 -0.875,2.75 -0.557,0.571 -1.414,0.906 -2.688,0.906 h -6.5 c -0.14,0 -0.336,-0.016 -0.594,-0.063 -1.133,-0.199 -1.927,-0.626 -2.438,-1.219 -0.511,-0.593 -0.781,-1.382 -0.781,-2.469 v -3.094 c 0,-1.131 0.284,-1.968 0.781,-2.563 0.492,-0.588 1.243,-0.98 2.313,-1.156 0.017,-0.003 0.015,0.002 0.031,0 0.295,-0.043 0.49,-0.063 0.563,-0.063"
            inkscape:connector-curvature="0"
            style="fill:#F59714" />
        </g>
    </g>
</svg>
